<?xml version="1.0" encoding="UTF-8" standalone="no"?>
<!DOCTYPE svg PUBLIC "-//W3C//DTD SVG 1.1//EN"
 "http://www.w3.org/Graphics/SVG/1.1/DTD/svg11.dtd">
<!-- Generated by graphviz version 2.38.0 (20140413.2041)
 -->
<!-- Title: snakemake_dag Pages: 1 -->
<svg width="417pt" height="332pt"
 viewBox="0.00 0.00 417.00 332.00" xmlns="http://www.w3.org/2000/svg" xmlns:xlink="http://www.w3.org/1999/xlink">
<g id="graph0" class="graph" transform="scale(1 1) rotate(0) translate(4 328)">
<title>snakemake_dag</title>
<polygon fill="white" stroke="none" points="-4,4 -4,-328 413,-328 413,4 -4,4"/>
<!-- 0 -->
<g id="node1" class="node"><title>0</title>
<path fill="none" stroke="#56a9d8" stroke-width="2" d="M198,-36C198,-36 168,-36 168,-36 162,-36 156,-30 156,-24 156,-24 156,-12 156,-12 156,-6 162,-0 168,-0 168,-0 198,-0 198,-0 204,-0 210,-6 210,-12 210,-12 210,-24 210,-24 210,-30 204,-36 198,-36"/>
<text text-anchor="middle" x="183" y="-15.5" font-family="sans" font-size="10.00">all</text>
</g>
<!-- 1 -->
<g id="node2" class="node"><title>1</title>
<path fill="none" stroke="#afd856" stroke-width="2" d="M207,-108C207,-108 159,-108 159,-108 153,-108 147,-102 147,-96 147,-96 147,-84 147,-84 147,-78 153,-72 159,-72 159,-72 207,-72 207,-72 213,-72 219,-78 219,-84 219,-84 219,-96 219,-96 219,-102 213,-108 207,-108"/>
<text text-anchor="middle" x="183" y="-87.5" font-family="sans" font-size="10.00">raw_counts</text>
</g>
<!-- 1&#45;&gt;0 -->
<g id="edge1" class="edge"><title>1&#45;&gt;0</title>
<path fill="none" stroke="grey" stroke-width="2" d="M183,-71.6966C183,-63.9827 183,-54.7125 183,-46.1124"/>
<polygon fill="grey" stroke="grey" stroke-width="2" points="186.5,-46.1043 183,-36.1043 179.5,-46.1044 186.5,-46.1043"/>
</g>
<!-- 2 -->
<g id="node3" class="node"><title>2</title>
<path fill="none" stroke="#56d8a9" stroke-width="2" d="M74,-180C74,-180 44,-180 44,-180 38,-180 32,-174 32,-168 32,-168 32,-156 32,-156 32,-150 38,-144 44,-144 44,-144 74,-144 74,-144 80,-144 86,-150 86,-156 86,-156 86,-168 86,-168 86,-174 80,-180 74,-180"/>
<text text-anchor="middle" x="59" y="-159.5" font-family="sans" font-size="10.00">pass2</text>
</g>
<!-- 2&#45;&gt;1 -->
<g id="edge2" class="edge"><title>2&#45;&gt;1</title>
<path fill="none" stroke="grey" stroke-width="2" d="M86.2123,-145.638C103.122,-136.092 125.136,-123.665 143.896,-113.075"/>
<polygon fill="grey" stroke="grey" stroke-width="2" points="145.82,-116.008 152.807,-108.044 142.379,-109.912 145.82,-116.008"/>
</g>
<!-- 3 -->
<g id="node4" class="node"><title>3</title>
<path fill="none" stroke="#56d8a9" stroke-width="2" d="M157,-180C157,-180 127,-180 127,-180 121,-180 115,-174 115,-168 115,-168 115,-156 115,-156 115,-150 121,-144 127,-144 127,-144 157,-144 157,-144 163,-144 169,-150 169,-156 169,-156 169,-168 169,-168 169,-174 163,-180 157,-180"/>
<text text-anchor="middle" x="142" y="-159.5" font-family="sans" font-size="10.00">pass2</text>
</g>
<!-- 3&#45;&gt;1 -->
<g id="edge3" class="edge"><title>3&#45;&gt;1</title>
<path fill="none" stroke="grey" stroke-width="2" d="M152.135,-143.697C156.852,-135.644 162.562,-125.894 167.782,-116.982"/>
<polygon fill="grey" stroke="grey" stroke-width="2" points="170.948,-118.502 172.982,-108.104 164.908,-114.964 170.948,-118.502"/>
</g>
<!-- 4 -->
<g id="node5" class="node"><title>4</title>
<path fill="none" stroke="#56d8a9" stroke-width="2" d="M239,-180C239,-180 209,-180 209,-180 203,-180 197,-174 197,-168 197,-168 197,-156 197,-156 197,-150 203,-144 209,-144 209,-144 239,-144 239,-144 245,-144 251,-150 251,-156 251,-156 251,-168 251,-168 251,-174 245,-180 239,-180"/>
<text text-anchor="middle" x="224" y="-159.5" font-family="sans" font-size="10.00">pass2</text>
</g>
<!-- 4&#45;&gt;1 -->
<g id="edge4" class="edge"><title>4&#45;&gt;1</title>
<path fill="none" stroke="grey" stroke-width="2" d="M213.865,-143.697C209.148,-135.644 203.438,-125.894 198.218,-116.982"/>
<polygon fill="grey" stroke="grey" stroke-width="2" points="201.092,-114.964 193.018,-108.104 195.052,-118.502 201.092,-114.964"/>
</g>
<!-- 5 -->
<g id="node6" class="node"><title>5</title>
<path fill="none" stroke="#56d8a9" stroke-width="2" d="M336,-180C336,-180 306,-180 306,-180 300,-180 294,-174 294,-168 294,-168 294,-156 294,-156 294,-150 300,-144 306,-144 306,-144 336,-144 336,-144 342,-144 348,-150 348,-156 348,-156 348,-168 348,-168 348,-174 342,-180 336,-180"/>
<text text-anchor="middle" x="321" y="-159.5" font-family="sans" font-size="10.00">pass2</text>
</g>
<!-- 5&#45;&gt;1 -->
<g id="edge5" class="edge"><title>5&#45;&gt;1</title>
<path fill="none" stroke="grey" stroke-width="2" d="M293.736,-147.17C274.354,-137.339 247.934,-123.937 225.761,-112.691"/>
<polygon fill="grey" stroke="grey" stroke-width="2" points="227.053,-109.421 216.552,-108.019 223.887,-115.664 227.053,-109.421"/>
</g>
<!-- 6 -->
<g id="node7" class="node"><title>6</title>
<path fill="none" stroke="#59d856" stroke-width="2" d="M62.5,-252C62.5,-252 23.5,-252 23.5,-252 17.5,-252 11.5,-246 11.5,-240 11.5,-240 11.5,-228 11.5,-228 11.5,-222 17.5,-216 23.5,-216 23.5,-216 62.5,-216 62.5,-216 68.5,-216 74.5,-222 74.5,-228 74.5,-228 74.5,-240 74.5,-240 74.5,-246 68.5,-252 62.5,-252"/>
<text text-anchor="middle" x="43" y="-231.5" font-family="sans" font-size="10.00">star_filter</text>
</g>
<!-- 6&#45;&gt;2 -->
<g id="edge6" class="edge"><title>6&#45;&gt;2</title>
<path fill="none" stroke="grey" stroke-width="2" d="M46.9551,-215.697C48.7182,-207.983 50.8372,-198.712 52.8029,-190.112"/>
<polygon fill="grey" stroke="grey" stroke-width="2" points="56.2741,-190.633 55.0904,-180.104 49.4501,-189.073 56.2741,-190.633"/>
</g>
<!-- 7 -->
<g id="node8" class="node"><title>7</title>
<path fill="none" stroke="#59d856" stroke-width="2" d="M156.5,-252C156.5,-252 117.5,-252 117.5,-252 111.5,-252 105.5,-246 105.5,-240 105.5,-240 105.5,-228 105.5,-228 105.5,-222 111.5,-216 117.5,-216 117.5,-216 156.5,-216 156.5,-216 162.5,-216 168.5,-222 168.5,-228 168.5,-228 168.5,-240 168.5,-240 168.5,-246 162.5,-252 156.5,-252"/>
<text text-anchor="middle" x="137" y="-231.5" font-family="sans" font-size="10.00">star_filter</text>
</g>
<!-- 7&#45;&gt;3 -->
<g id="edge7" class="edge"><title>7&#45;&gt;3</title>
<path fill="none" stroke="grey" stroke-width="2" d="M138.236,-215.697C138.787,-207.983 139.449,-198.712 140.063,-190.112"/>
<polygon fill="grey" stroke="grey" stroke-width="2" points="143.557,-190.328 140.778,-180.104 136.575,-189.83 143.557,-190.328"/>
</g>
<!-- 8 -->
<g id="node9" class="node"><title>8</title>
<path fill="none" stroke="#59d856" stroke-width="2" d="M249.5,-252C249.5,-252 210.5,-252 210.5,-252 204.5,-252 198.5,-246 198.5,-240 198.5,-240 198.5,-228 198.5,-228 198.5,-222 204.5,-216 210.5,-216 210.5,-216 249.5,-216 249.5,-216 255.5,-216 261.5,-222 261.5,-228 261.5,-228 261.5,-240 261.5,-240 261.5,-246 255.5,-252 249.5,-252"/>
<text text-anchor="middle" x="230" y="-231.5" font-family="sans" font-size="10.00">star_filter</text>
</g>
<!-- 8&#45;&gt;4 -->
<g id="edge8" class="edge"><title>8&#45;&gt;4</title>
<path fill="none" stroke="grey" stroke-width="2" d="M228.517,-215.697C227.856,-207.983 227.061,-198.712 226.324,-190.112"/>
<polygon fill="grey" stroke="grey" stroke-width="2" points="229.807,-189.769 225.466,-180.104 222.833,-190.367 229.807,-189.769"/>
</g>
<!-- 9 -->
<g id="node10" class="node"><title>9</title>
<path fill="none" stroke="#59d856" stroke-width="2" d="M361.5,-252C361.5,-252 322.5,-252 322.5,-252 316.5,-252 310.5,-246 310.5,-240 310.5,-240 310.5,-228 310.5,-228 310.5,-222 316.5,-216 322.5,-216 322.5,-216 361.5,-216 361.5,-216 367.5,-216 373.5,-222 373.5,-228 373.5,-228 373.5,-240 373.5,-240 373.5,-246 367.5,-252 361.5,-252"/>
<text text-anchor="middle" x="342" y="-231.5" font-family="sans" font-size="10.00">star_filter</text>
</g>
<!-- 9&#45;&gt;5 -->
<g id="edge9" class="edge"><title>9&#45;&gt;5</title>
<path fill="none" stroke="grey" stroke-width="2" d="M336.809,-215.697C334.469,-207.898 331.653,-198.509 329.049,-189.829"/>
<polygon fill="grey" stroke="grey" stroke-width="2" points="332.357,-188.677 326.131,-180.104 325.652,-190.688 332.357,-188.677"/>
</g>
<!-- 10 -->
<g id="node11" class="node"><title>10</title>
<path fill="none" stroke="#d8ac56" stroke-width="2" d="M62,-324C62,-324 12,-324 12,-324 6,-324 0,-318 0,-312 0,-312 0,-300 0,-300 0,-294 6,-288 12,-288 12,-288 62,-288 62,-288 68,-288 74,-294 74,-300 74,-300 74,-312 74,-312 74,-318 68,-324 62,-324"/>
<text text-anchor="middle" x="37" y="-309" font-family="sans" font-size="10.00">star_pass1</text>
<text text-anchor="middle" x="37" y="-298" font-family="sans" font-size="10.00">sample: alb</text>
</g>
<!-- 10&#45;&gt;6 -->
<g id="edge10" class="edge"><title>10&#45;&gt;6</title>
<path fill="none" stroke="grey" stroke-width="2" d="M38.4831,-287.697C39.1443,-279.983 39.9389,-270.712 40.6761,-262.112"/>
<polygon fill="grey" stroke="grey" stroke-width="2" points="44.167,-262.367 41.5339,-252.104 37.1926,-261.769 44.167,-262.367"/>
</g>
<!-- 11 -->
<g id="node12" class="node"><title>11</title>
<path fill="none" stroke="#d8ac56" stroke-width="2" d="M157.5,-324C157.5,-324 104.5,-324 104.5,-324 98.5,-324 92.5,-318 92.5,-312 92.5,-312 92.5,-300 92.5,-300 92.5,-294 98.5,-288 104.5,-288 104.5,-288 157.5,-288 157.5,-288 163.5,-288 169.5,-294 169.5,-300 169.5,-300 169.5,-312 169.5,-312 169.5,-318 163.5,-324 157.5,-324"/>
<text text-anchor="middle" x="131" y="-309" font-family="sans" font-size="10.00">star_pass1</text>
<text text-anchor="middle" x="131" y="-298" font-family="sans" font-size="10.00">sample: dex</text>
</g>
<!-- 11&#45;&gt;7 -->
<g id="edge11" class="edge"><title>11&#45;&gt;7</title>
<path fill="none" stroke="grey" stroke-width="2" d="M132.483,-287.697C133.144,-279.983 133.939,-270.712 134.676,-262.112"/>
<polygon fill="grey" stroke="grey" stroke-width="2" points="138.167,-262.367 135.534,-252.104 131.193,-261.769 138.167,-262.367"/>
</g>
<!-- 12 -->
<g id="node13" class="node"><title>12</title>
<path fill="none" stroke="#d8ac56" stroke-width="2" d="M272.5,-324C272.5,-324 199.5,-324 199.5,-324 193.5,-324 187.5,-318 187.5,-312 187.5,-312 187.5,-300 187.5,-300 187.5,-294 193.5,-288 199.5,-288 199.5,-288 272.5,-288 272.5,-288 278.5,-288 284.5,-294 284.5,-300 284.5,-300 284.5,-312 284.5,-312 284.5,-318 278.5,-324 272.5,-324"/>
<text text-anchor="middle" x="236" y="-309" font-family="sans" font-size="10.00">star_pass1</text>
<text text-anchor="middle" x="236" y="-298" font-family="sans" font-size="10.00">sample: alb_dex</text>
</g>
<!-- 12&#45;&gt;8 -->
<g id="edge12" class="edge"><title>12&#45;&gt;8</title>
<path fill="none" stroke="grey" stroke-width="2" d="M234.517,-287.697C233.856,-279.983 233.061,-270.712 232.324,-262.112"/>
<polygon fill="grey" stroke="grey" stroke-width="2" points="235.807,-261.769 231.466,-252.104 228.833,-262.367 235.807,-261.769"/>
</g>
<!-- 13 -->
<g id="node14" class="node"><title>13</title>
<path fill="none" stroke="#d8ac56" stroke-width="2" d="M397,-324C397,-324 315,-324 315,-324 309,-324 303,-318 303,-312 303,-312 303,-300 303,-300 303,-294 309,-288 315,-288 315,-288 397,-288 397,-288 403,-288 409,-294 409,-300 409,-300 409,-312 409,-312 409,-318 403,-324 397,-324"/>
<text text-anchor="middle" x="356" y="-309" font-family="sans" font-size="10.00">star_pass1</text>
<text text-anchor="middle" x="356" y="-298" font-family="sans" font-size="10.00">sample: untreated</text>
</g>
<!-- 13&#45;&gt;9 -->
<g id="edge13" class="edge"><title>13&#45;&gt;9</title>
<path fill="none" stroke="grey" stroke-width="2" d="M352.539,-287.697C350.997,-279.983 349.142,-270.712 347.422,-262.112"/>
<polygon fill="grey" stroke="grey" stroke-width="2" points="350.814,-261.224 345.421,-252.104 343.95,-262.597 350.814,-261.224"/>
</g>
</g>
</svg>
